{"title":"Zookeeper 2011 R5 READNFO XViD - CHOiCE","uid":6613344,"size":1485074368,"categoryP":"video","categoryS":"movies","magnet":"?xt=urn:btih:7b384752cdfed5487787a0f536a59743a291b3dc&amp;dn=Zookeeper+2011+R5+READNFO+XViD+-+CHOiCE&amp;tr=udp%3A%2F%2Ftracker.openbittorrent.com%3A80&amp;tr=udp%3A%2F%2Fopen.demonii.com%3A1337&amp;tr=udp%3A%2F%2Ftracker.coppersurfer.tk%3A6969&amp;tr=udp%3A%2F%2Fexodus.desync.com%3A6969","seeders":1,"leechers":0,"uploader":"HeroMaster","files":-1,"time":1313678743,"description":"Zookeeper 2011 R5 READNFO XViD - CHOiCE\n\n\nInformation:\n\n\nIMDB: http://www.imdb.com/title/tt1222817/ RELEASE DATE: 07/08/11\nSIZE: 1.36gb LENGTH: 1H 37MN\nSOURCE: V: RELiZLAB Thanks A: ERDNA Thanks HEIGHT: 304\nSUBTITLES: NONE WIDTH: 720\n\n\nINFO:\n\n\nVideo\nID : 0\nFormat : MPEG-4 Visual\nFormat profile : Advanced Simple@L5\nFormat settings, BVOP : 2\nFormat settings, QPel : No\nFormat settings, GMC : No warppoints\nFormat settings, Matrix : Default (MPEG)\nMuxing mode : Packed bitstream\nCodec ID : XVID\nCodec ID/Hint : XviD\nDuration : 1h 37mn\nBit rate : 1 872 Kbps\nWidth : 720 pixels\nHeight : 304 pixels\nDisplay aspect ratio : 2.35:1\nFrame rate : 25.000 fps\nColor space : YUV\nChroma subsampling : 4:2:0\nBit depth : 8 bits\nScan type : Progressive\nCompression mode : Lossy\nBits/(Pixel*Frame) : 0.342\nStream size : 1.28 GiB (93%)\nWriting library : XviD 64\n\n\nAudio\nID : 1\nFormat : MPEG Audio\nFormat version : Version 1\nFormat profile : Layer 3\nMode : Joint stereo\nMode extension : MS Stereo\nCodec ID : 55\nCodec ID/Hint : MP3\nDuration : 1h 37mn\nBit rate mode : Constant\nBit rate : 128 Kbps\nChannel(s) : 2 channels\nSampling rate : 44.1 KHz\nCompression mode : Lossy\nStream size : 89.4 MiB (6%)\nAlignment : Split accross interleaves\nInterleave, duration : 40 ms (1.00 video frame)\n\n\nNOTES:\n\n\nVideo was very nice, but needed so tweaking done to the colors.\nAudio was nice CAM audio also, a bit hollow and could hear laughter\nfrom time to time but didnt have line so used what was available.\n\n\nScreens:\n\n &lt;a href=&quot;\nhttp://leetleech.org/images/58692544759721169642.jpg&quot; rel=&quot;nofollow&quot; target=&quot;_NEW&quot;&gt;\nhttp://leetleech.org/images/58692544759721169642.jpg&lt;/a&gt;\n &lt;a href=&quot;\nhttp://leetleech.org/images/74690474074987569719.jpg&quot; rel=&quot;nofollow&quot; target=&quot;_NEW&quot;&gt;\nhttp://leetleech.org/images/74690474074987569719.jpg&lt;/a&gt;\n &lt;a href=&quot;\nhttp://leetleech.org/images/19497014672197092930.jpg&quot; rel=&quot;nofollow&quot; target=&quot;_NEW&quot;&gt;\nhttp://leetleech.org/images/19497014672197092930.jpg&lt;/a&gt;\n\n\nENJOY!","torrent":{"xt":"urn:btih:7b384752cdfed5487787a0f536a59743a291b3dc","amp;dn":"Zookeeper+2011+R5+READNFO+XViD+-+CHOiCE","amp;tr":["udp%3A%2F%2Ftracker.openbittorrent.com%3A80","udp%3A%2F%2Fopen.demonii.com%3A1337","udp%3A%2F%2Ftracker.coppersurfer.tk%3A6969","udp%3A%2F%2Fexodus.desync.com%3A6969"],"infoHash":"7b384752cdfed5487787a0f536a59743a291b3dc","infoHashBuffer":{"type":"Buffer","data":[123,56,71,82,205,254,213,72,119,135,160,245,54,165,151,67,162,145,179,220]},"announce":[],"urlList":[]}}